<?xml version="1.0" standalone="no"?>
<!DOCTYPE svg PUBLIC "-//W3C//DTD SVG 20010904//EN"
 "http://www.w3.org/TR/2001/REC-SVG-20010904/DTD/svg10.dtd">
<svg version="1.0" xmlns="http://www.w3.org/2000/svg"
 width="500.000000pt" height="500.000000pt" viewBox="0 0 500.000000 500.000000"
 preserveAspectRatio="xMidYMid meet">
<metadata>
Created by potrace 1.14, written by Peter Selinger 2001-2017
</metadata>
<g transform="translate(0.000000,500.000000) scale(0.100000,-0.100000)"
fill="#000000" stroke="none">
<path d="M2322 3659 c-1139 -82 -2066 -927 -2208 -2013 -21 -164 -16 -227 21
-266 16 -17 46 -35 66 -40 24 -7 833 -9 2321 -8 2182 3 2285 4 2311 21 69 45
80 106 51 308 -90 648 -461 1227 -1025 1599 -355 235 -756 368 -1204 400 -154
11 -169 11 -333 -1z m511 -65 c564 -73 1118 -370 1484 -798 279 -325 457 -714
518 -1127 22 -152 21 -167 -12 -180 -164 -66 -334 58 -321 233 4 48 17 84 78
203 64 126 75 154 78 209 4 57 2 65 -19 80 -40 27 -89 20 -185 -29 -48 -25
-101 -45 -117 -45 -40 0 -92 54 -107 110 -15 56 -7 104 36 232 45 128 48 202
15 271 -40 83 -113 121 -185 97 -20 -6 -70 -43 -111 -81 -41 -37 -87 -71 -102
-75 -15 -3 -33 -7 -40 -9 -24 -8 -114 23 -139 46 -50 46 -59 76 -54 179 9 215
6 272 -17 316 -46 87 -122 120 -203 88 -24 -10 -80 -49 -124 -87 -43 -37 -96
-77 -117 -88 -47 -23 -135 -25 -187 -3 -55 22 -87 57 -167 179 -82 126 -129
169 -218 197 -133 42 -267 -15 -323 -137 -21 -44 -24 -65 -24 -178 0 -138 -9
-175 -53 -215 -34 -32 -83 -27 -111 11 -19 26 -21 40 -18 165 2 137 2 137 -28
189 -101 174 -351 147 -414 -44 -9 -26 -22 -92 -30 -145 -16 -109 -36 -159
-73 -183 -49 -32 -82 -29 -228 20 -118 40 -147 46 -189 41 -108 -12 -213 -93
-262 -199 -39 -87 -50 -181 -35 -294 30 -221 28 -269 -18 -323 -24 -29 -35
-35 -69 -35 -49 0 -78 23 -86 70 -17 91 -130 101 -208 18 -68 -71 -78 -153
-43 -343 20 -104 26 -162 22 -206 -14 -147 -80 -216 -234 -240 l-43 -7 0 36
c0 70 31 261 64 391 194 770 829 1402 1626 1622 322 89 652 112 993 68z
m-1258 -1090 c230 -59 378 -302 324 -533 -52 -225 -280 -380 -506 -343 -242
40 -414 273 -375 508 29 178 171 333 340 373 59 14 153 12 217 -5z m2070 2
c226 -60 370 -274 337 -498 -37 -247 -270 -419 -514 -379 -217 36 -378 223
-378 441 0 288 282 509 555 436z m-864 -636 c39 -21 13 -115 -48 -171 -67 -63
-187 -91 -304 -71 -79 14 -120 32 -162 71 -60 55 -87 149 -49 170 23 14 537
14 563 1z"/>
</g>
</svg>
